<?xml version="1.0" encoding="utf-8"?>
<svg xmlns="http://www.w3.org/2000/svg" viewBox="0 0 30 30" width="9" height="9">
  <path d="M19.587891 3.0097656C17.515453 2.9278281 15.416484 3.6772656 13.833984 5.2597656C11.85904 7.23471 11.601587 9.5983278 12.501953 11.841797L4.171875 20.171875C2.609875 21.733875 2.609875 24.266125 4.171875 25.828125C5.733875 27.390125 8.266125 27.390125 9.828125 25.828125L18.158203 17.498047C20.401672 18.398413 22.76529 18.14096 24.740234 16.166016C26.850234 14.056016 27.476859 11.029141 26.630859 8.3691406L22 13L18 12L17 8L21.630859 3.3691406C20.965859 3.1576406 20.278703 3.0370781 19.587891 3.0097656 z M 7 21C8.105 21 9 21.895 9 23C9 24.105 8.105 25 7 25C5.895 25 5 24.105 5 23C5 21.895 5.895 21 7 21 z" fill="#FFFFFF" />
</svg>